<svg version="1.1" id="plugin-logo-placeholder" xmlns="http://www.w3.org/2000/svg" x="0" y="0" viewBox="0 0 200 200" xml:space="preserve"><path fill="none" stroke="currentColor" stroke-width="2" stroke-linecap="round" d="M104.375 62.083H152c7.18 0 13 5.82 13 13v71.5c-.001 7.18-5.82 12.999-13 13H48c-7.18 0-13-5.82-13-13v-71.5c0-7.18 5.82-13 13-13h6.446"/><path fill="none" stroke="currentColor" stroke-width="2" stroke-linecap="round" d="M104.337 62.083V48.297c0-4.352 3.88-7.88 8.667-7.88h26c4.787 0 8.667 3.526 8.667 7.88v13.787m-93.168-.006V49.083a8.667 8.667 0 018.667-8.667h26a8.666 8.666 0 018.667 8.665v34.618m-13.137.57h35.082"/><path fill="currentColor" d="M132.315 145.125h24.914a5.084 5.084 0 015.084 5.084v16.144a5.084 5.084 0 01-5.084 5.084h-24.914a5.084 5.084 0 01-5.084-5.084v-16.144a5.084 5.084 0 015.084-5.084z" transform="translate(-42.531 -46.238)"/></svg>