<?xml version="1.0" encoding="UTF-8"?>
<svg xmlns="http://www.w3.org/2000/svg" xmlnsXlink="http://www.w3.org/1999/xlink" width="393px" height="94px" viewBox="0 0 393 94" version="1.1">
<defs>
<linearGradient id="linear0" gradientUnits="userSpaceOnUse" x1="13.915" y1="81.21" x2="26.825" y2="81.21" gradientTransform="matrix(2.643519,0,0,1.072292,-10.929395,-6.77975)">
<stop offset="0" style="stop-color:rgb(93.72549%,25.490196%,21.176471%);stop-opacity:1;"/>
<stop offset="1" style="stop-color:rgb(98.431373%,69.019608%,25.098039%);stop-opacity:1;"/>
</linearGradient>
<linearGradient id="linear1" gradientUnits="userSpaceOnUse" x1="5.912" y1="37.5" x2="25.174" y2="37.5" gradientTransform="matrix(1.852484,0,0,1.530161,-10.929395,-6.77975)">
<stop offset="0" style="stop-color:rgb(93.72549%,25.490196%,21.176471%);stop-opacity:1;"/>
<stop offset="1" style="stop-color:rgb(98.431373%,69.019608%,25.098039%);stop-opacity:1;"/>
</linearGradient>
<linearGradient id="linear2" gradientUnits="userSpaceOnUse" x1="8.557" y1="13.566" x2="52.049" y2="13.566" gradientTransform="matrix(1.860127,0,0,1.523881,-10.929395,-6.77975)">
<stop offset="0" style="stop-color:rgb(93.72549%,25.490196%,21.176471%);stop-opacity:1;"/>
<stop offset="1" style="stop-color:rgb(98.431373%,69.019608%,25.098039%);stop-opacity:1;"/>
</linearGradient>
<linearGradient id="linear3" gradientUnits="userSpaceOnUse" x1="7.907" y1="10.19" x2="22.3" y2="10.19" gradientTransform="matrix(1.382317,0,0,2.050632,-10.929395,-6.77975)">
<stop offset="0" style="stop-color:rgb(93.72549%,25.490196%,21.176471%);stop-opacity:1;"/>
<stop offset="1" style="stop-color:rgb(98.431373%,69.019608%,25.098039%);stop-opacity:1;"/>
</linearGradient>
<linearGradient id="linear4" gradientUnits="userSpaceOnUse" x1="14.119" y1="4.994" x2="33.978" y2="4.994" gradientTransform="matrix(2.087946,0,0,1.357614,-10.929395,-6.77975)">
<stop offset="0" style="stop-color:rgb(93.72549%,25.490196%,21.176471%);stop-opacity:1;"/>
<stop offset="1" style="stop-color:rgb(98.431373%,69.019608%,25.098039%);stop-opacity:1;"/>
</linearGradient>
<linearGradient id="linear5" gradientUnits="userSpaceOnUse" x1="55.598" y1="10.221" x2="69.96" y2="10.221" gradientTransform="matrix(1.383226,0,0,2.049285,-10.929395,-6.77975)">
<stop offset="0" style="stop-color:rgb(93.72549%,25.490196%,21.176471%);stop-opacity:1;"/>
<stop offset="1" style="stop-color:rgb(98.431373%,69.019608%,25.098039%);stop-opacity:1;"/>
</linearGradient>
</defs>
<g id="surface1">
<path style=" stroke:none;fill-rule:nonzero;fill:rgb(0%,0%,0%);fill-opacity:1;" d="M 144.050781 42.46875 C 147.300781 42.46875 149.804688 43.65625 151.492188 45.90625 C 153.121094 48.160156 153.933594 51.351562 153.933594 55.417969 L 153.933594 60.921875 C 153.933594 64.550781 153.121094 67.492188 151.554688 69.746094 C 149.929688 72.058594 147.363281 73.246094 143.925781 73.246094 L 115.710938 73.246094 C 115.148438 73.246094 113.898438 73.058594 113.898438 71.121094 L 113.898438 66.117188 C 113.898438 64.175781 115.148438 63.988281 115.710938 63.988281 L 142.421875 63.988281 C 143.484375 63.988281 143.863281 63.550781 144.113281 63.175781 C 144.488281 62.550781 144.675781 61.671875 144.675781 60.546875 L 144.675781 55.167969 C 144.675781 52.101562 143.421875 51.726562 142.484375 51.726562 L 123.71875 51.726562 C 121.089844 51.726562 118.214844 51.351562 116.273438 48.785156 C 114.710938 46.597656 113.835938 43.09375 113.835938 38.777344 L 113.835938 34.019531 C 113.835938 30.390625 114.648438 27.390625 116.273438 25.136719 C 117.902344 22.824219 120.402344 21.695312 123.84375 21.695312 L 150.804688 21.695312 C 151.304688 21.695312 152.558594 21.882812 152.558594 23.824219 L 152.558594 28.828125 C 152.558594 30.769531 151.304688 30.957031 150.804688 30.957031 L 125.34375 30.957031 C 124.28125 30.957031 123.90625 31.394531 123.65625 31.769531 C 123.34375 32.394531 123.15625 33.269531 123.15625 34.394531 L 123.15625 39.027344 C 123.15625 42.089844 124.34375 42.46875 125.28125 42.46875 Z M 211.4375 26.261719 C 212.6875 27.828125 213.5625 29.890625 214.125 32.394531 C 214.625 34.835938 214.9375 37.835938 214.9375 41.277344 L 214.9375 53.664062 C 214.9375 57.167969 214.625 60.171875 214.125 62.613281 C 213.5625 65.113281 212.6875 67.179688 211.4375 68.804688 C 210.183594 70.371094 208.558594 71.558594 206.554688 72.246094 C 204.617188 72.933594 202.238281 73.308594 199.488281 73.308594 L 184.222656 73.308594 C 181.472656 73.308594 179.09375 72.933594 177.21875 72.246094 C 175.214844 71.558594 173.589844 70.371094 172.339844 68.742188 C 171.148438 67.179688 170.210938 65.113281 169.648438 62.613281 C 169.085938 60.171875 168.835938 57.167969 168.835938 53.664062 L 168.835938 41.277344 C 168.835938 37.773438 169.085938 34.835938 169.648438 32.394531 C 170.210938 29.890625 171.148438 27.828125 172.339844 26.261719 C 173.589844 24.699219 175.214844 23.511719 177.21875 22.761719 C 179.15625 22.070312 181.472656 21.695312 184.222656 21.695312 L 199.488281 21.695312 C 202.238281 21.695312 204.617188 22.070312 206.554688 22.761719 C 208.558594 23.511719 210.183594 24.699219 211.4375 26.261719 Z M 205.617188 40.214844 C 205.617188 38.402344 205.554688 36.835938 205.304688 35.585938 C 205.117188 34.394531 204.742188 33.457031 204.242188 32.769531 C 203.804688 32.144531 203.179688 31.707031 202.363281 31.394531 C 201.550781 31.144531 200.488281 30.957031 199.175781 30.957031 L 184.535156 30.957031 C 183.222656 30.957031 182.160156 31.144531 181.347656 31.394531 C 180.53125 31.707031 179.90625 32.144531 179.46875 32.769531 C 178.96875 33.457031 178.65625 34.394531 178.40625 35.585938 C 178.21875 36.835938 178.09375 38.402344 178.09375 40.214844 L 178.09375 54.792969 C 178.09375 56.605469 178.21875 58.167969 178.40625 59.421875 C 178.65625 60.546875 178.96875 61.546875 179.46875 62.175781 C 179.90625 62.863281 180.53125 63.300781 181.347656 63.550781 C 182.160156 63.863281 183.222656 63.988281 184.535156 63.988281 L 199.175781 63.988281 C 200.488281 63.988281 201.550781 63.863281 202.363281 63.550781 C 203.179688 63.300781 203.804688 62.863281 204.242188 62.175781 C 204.742188 61.546875 205.117188 60.546875 205.304688 59.421875 C 205.554688 58.171875 205.617188 56.605469 205.617188 54.792969 Z M 265.9375 63.988281 C 266.5 63.988281 267.6875 64.238281 267.6875 66.179688 L 267.6875 71.121094 C 267.6875 73.058594 266.5 73.308594 265.9375 73.308594 L 245.292969 73.308594 C 242.539062 73.308594 240.164062 72.933594 238.285156 72.246094 C 236.285156 71.558594 234.65625 70.371094 233.40625 68.742188 C 232.15625 67.179688 231.28125 65.113281 230.71875 62.613281 C 230.152344 60.171875 229.839844 57.167969 229.839844 53.664062 L 229.839844 23.886719 C 229.839844 21.882812 231.09375 21.695312 231.65625 21.695312 L 237.410156 21.695312 C 237.910156 21.695312 239.164062 21.882812 239.164062 23.886719 L 239.164062 54.730469 C 239.164062 56.605469 239.226562 58.171875 239.476562 59.421875 C 239.664062 60.546875 240.039062 61.484375 240.539062 62.175781 C 240.976562 62.863281 241.601562 63.300781 242.351562 63.550781 C 243.226562 63.863281 244.292969 63.988281 245.605469 63.988281 Z M 316.121094 27.515625 L 333.699219 70.871094 C 333.949219 71.433594 334.011719 71.996094 333.886719 72.371094 C 333.761719 72.683594 333.511719 73.308594 332.507812 73.308594 L 325.816406 73.308594 C 324.941406 73.308594 324.316406 72.808594 324.003906 71.933594 L 308.488281 33.207031 L 308.425781 33.082031 L 308.175781 33.082031 C 308.175781 33.082031 308.113281 33.144531 308.050781 33.269531 L 300.042969 53.539062 L 307.800781 53.539062 C 308.613281 53.539062 309.300781 54.039062 309.613281 54.792969 L 311.867188 60.359375 C 312.054688 60.984375 311.992188 61.671875 311.617188 62.175781 C 311.304688 62.738281 310.675781 63.050781 309.988281 63.050781 L 296.289062 63.050781 L 292.722656 71.996094 C 292.410156 72.808594 291.785156 73.308594 290.972656 73.308594 L 284.089844 73.308594 C 283.089844 73.308594 282.777344 72.746094 282.714844 72.371094 C 282.589844 71.996094 282.652344 71.433594 282.839844 70.871094 L 300.292969 27.515625 C 301.167969 25.261719 302.109375 23.761719 303.046875 22.949219 C 303.296875 22.757812 303.609375 22.511719 303.984375 22.320312 C 305.234375 21.445312 306.738281 21.007812 308.300781 21.007812 C 311.742188 21.007812 314.742188 23.324219 315.746094 26.574219 Z M 392.765625 70.558594 C 393.015625 70.933594 393.078125 71.433594 393.015625 72.058594 C 392.890625 72.808594 392.328125 73.308594 391.578125 73.308594 L 384.695312 73.308594 C 384.132812 73.308594 383.695312 73.183594 383.382812 72.933594 C 383.132812 72.746094 382.945312 72.433594 382.695312 72.058594 L 371.371094 51.976562 L 358.171875 51.976562 L 358.171875 71.121094 C 358.171875 73.058594 356.984375 73.308594 356.421875 73.308594 L 350.726562 73.308594 C 350.164062 73.308594 348.914062 73.058594 348.914062 71.121094 L 348.914062 44.84375 C 348.914062 42.90625 350.164062 42.71875 350.726562 42.71875 L 377.9375 42.71875 C 379.566406 42.71875 380.628906 42.28125 381.253906 41.339844 C 381.941406 40.402344 382.257812 38.902344 382.257812 36.835938 C 382.257812 34.773438 381.941406 33.269531 381.253906 32.332031 C 380.628906 31.394531 379.566406 30.957031 377.9375 30.957031 L 350.726562 30.957031 C 350.164062 30.957031 348.914062 30.769531 348.914062 28.828125 L 348.914062 23.886719 C 348.914062 21.882812 350.164062 21.695312 350.726562 21.695312 L 379.566406 21.695312 C 383.820312 21.695312 386.949219 23.011719 388.824219 25.699219 C 390.511719 28.265625 391.453125 31.894531 391.578125 36.648438 L 391.578125 37.023438 C 391.453125 41.839844 390.511719 45.46875 388.824219 47.972656 C 387.261719 50.101562 384.882812 51.414062 381.816406 51.789062 Z M 392.765625 70.558594 "/>
<path style=" stroke:none;fill-rule:nonzero;fill:url(#linear0);" d="M 35.890625 92.558594 C 36.566406 92.878906 37.265625 93.15625 37.976562 93.382812 L 38.28125 93.484375 C 38.960938 93.695312 39.652344 93.855469 40.351562 93.972656 L 40.671875 93.972656 C 42.128906 94.199219 43.609375 94.199219 45.066406 93.972656 L 45.402344 93.972656 C 46.089844 93.859375 46.769531 93.703125 47.441406 93.503906 L 47.828125 93.382812 C 48.503906 93.167969 49.167969 92.90625 49.8125 92.609375 L 50.097656 92.476562 C 50.753906 92.15625 51.386719 91.804688 52 91.414062 L 52.152344 91.332031 C 52.796875 90.914062 53.421875 90.464844 54.023438 89.984375 L 54.375 89.695312 C 54.960938 89.214844 55.519531 88.691406 56.058594 88.132812 L 56.429688 87.761719 C 56.984375 87.1875 57.539062 86.582031 58.113281 85.941406 L 58.347656 85.640625 C 58.855469 85.023438 59.34375 84.375 59.8125 83.703125 L 59.980469 83.46875 C 54.554688 83.15625 49.191406 82.148438 44.023438 80.46875 C 43.308594 80.246094 42.546875 80.246094 41.832031 80.46875 C 36.660156 82.160156 31.289062 83.179688 25.855469 83.5 C 28.359375 87.339844 31.816406 90.460938 35.890625 92.558594 Z M 35.890625 92.558594 "/>
<path style=" stroke:none;fill-rule:nonzero;fill:url(#linear1);" d="M 0.03125 63.9375 C 0.09375 64.648438 0.199219 65.359375 0.351562 66.058594 L 0.433594 66.445312 C 0.59375 67.125 0.796875 67.792969 1.039062 68.449219 L 1.175781 68.769531 C 1.707031 70.136719 2.445312 71.414062 3.363281 72.558594 L 3.582031 72.828125 C 4.019531 73.359375 4.492188 73.867188 4.996094 74.339844 L 5.300781 74.628906 C 5.835938 75.097656 6.394531 75.539062 6.984375 75.941406 L 7.253906 76.125 C 7.828125 76.515625 8.425781 76.875 9.039062 77.203125 L 9.257812 77.320312 C 9.914062 77.660156 10.601562 77.960938 11.292969 78.246094 L 11.765625 78.433594 C 12.460938 78.691406 13.179688 78.921875 13.917969 79.125 L 14.476562 79.257812 C 15.234375 79.460938 16.007812 79.628906 16.816406 79.761719 L 17.21875 79.761719 C 17.960938 79.886719 18.71875 79.980469 19.492188 80.050781 L 19.863281 80.050781 C 19.257812 78.871094 18.695312 77.640625 18.179688 76.363281 C 17.867188 75.699219 18.019531 74.914062 18.554688 74.414062 C 19.085938 73.917969 19.878906 73.820312 20.519531 74.171875 C 20.863281 74.351562 21.136719 74.640625 21.292969 75 C 21.742188 76.066406 22.21875 77.089844 22.726562 78.078125 C 23.390625 79.390625 24.777344 80.171875 26.242188 80.066406 C 29.203125 79.863281 32.140625 79.429688 35.03125 78.769531 C 35.394531 78.671875 35.660156 78.363281 35.699219 77.992188 C 35.738281 77.617188 35.546875 77.257812 35.21875 77.085938 C 32.726562 75.957031 30.25 74.710938 27.824219 73.296875 C 17.832031 67.785156 9.265625 60.011719 2.808594 50.601562 L 2.707031 50.820312 C 2.335938 51.628906 2 52.417969 1.714844 53.210938 L 1.714844 53.378906 C 1.410156 54.1875 1.160156 55.0625 0.941406 55.804688 L 0.820312 56.207031 C 0.621094 56.984375 0.457031 57.75 0.332031 58.515625 L 0.332031 58.917969 C 0.214844 59.683594 0.136719 60.453125 0.0976562 61.226562 L 0.0976562 61.394531 C 0.0585938 62.121094 0.0585938 62.855469 0.0976562 63.582031 C 0.015625 63.699219 0.015625 63.785156 0.03125 63.9375 Z M 0.03125 63.9375 "/>
<path style=" stroke:none;fill-rule:nonzero;fill:url(#linear2);" d="M 43.144531 17.652344 L 42.910156 17.652344 C 38.238281 19.292969 33.730469 21.367188 29.441406 23.847656 C 19.730469 29.222656 11.445312 36.839844 5.285156 46.070312 C 4.890625 46.699219 4.890625 47.496094 5.285156 48.125 C 7.582031 51.785156 10.289062 55.175781 13.347656 58.230469 C 12.871094 54.539062 12.632812 50.820312 12.640625 47.097656 L 12.640625 43.984375 C 12.65625 43.589844 12.8125 43.214844 13.078125 42.921875 C 13.558594 42.425781 14.292969 42.273438 14.933594 42.535156 C 15.570312 42.800781 15.984375 43.425781 15.972656 44.117188 L 15.972656 47.132812 C 15.972656 51.691406 16.359375 56.242188 17.136719 60.738281 C 17.269531 61.496094 17.667969 62.183594 18.261719 62.671875 C 21.773438 65.574219 25.523438 68.171875 29.476562 70.433594 C 38.675781 75.9375 49.011719 79.269531 59.695312 80.167969 C 61.148438 80.21875 62.5 79.417969 63.148438 78.113281 C 64.5 75.359375 65.625 72.496094 66.515625 69.558594 C 66.621094 69.214844 66.488281 68.84375 66.191406 68.636719 C 65.898438 68.433594 65.5 68.445312 65.21875 68.667969 C 62.921875 70.34375 60.546875 71.90625 58.097656 73.347656 C 57.339844 73.785156 56.5625 74.191406 55.789062 74.59375 C 55.40625 74.796875 54.960938 74.847656 54.542969 74.730469 C 53.914062 74.515625 53.46875 73.953125 53.40625 73.289062 C 53.34375 72.628906 53.675781 71.988281 54.257812 71.664062 C 55 71.273438 55.734375 70.863281 56.464844 70.433594 C 60.449219 68.136719 64.230469 65.492188 67.761719 62.539062 C 68.277344 62.109375 68.632812 61.515625 68.769531 60.855469 C 69.535156 56.308594 69.90625 51.707031 69.882812 47.097656 L 69.882812 43.445312 C 69.875 42.816406 70.222656 42.238281 70.777344 41.941406 C 71.335938 41.648438 72.007812 41.6875 72.523438 42.046875 C 72.886719 42.347656 73.105469 42.789062 73.128906 43.261719 C 73.128906 44.507812 73.214844 45.753906 73.214844 47.015625 C 73.414062 58.425781 70.949219 69.726562 66.007812 80.015625 L 66.378906 80.015625 C 67.152344 79.9375 67.910156 79.84375 68.652344 79.730469 L 69.039062 79.730469 C 69.847656 79.59375 70.621094 79.410156 71.394531 79.207031 L 71.933594 79.074219 C 72.675781 78.871094 73.394531 78.636719 74.089844 78.367188 L 74.5625 78.179688 C 75.269531 77.894531 75.957031 77.589844 76.617188 77.253906 L 76.835938 77.136719 C 77.453125 76.804688 78.054688 76.4375 78.636719 76.042969 L 78.90625 75.875 C 79.492188 75.464844 80.054688 75.019531 80.589844 74.542969 L 80.890625 74.257812 C 81.394531 73.78125 81.867188 73.277344 82.304688 72.742188 L 82.523438 72.472656 C 83.445312 71.328125 84.183594 70.050781 84.714844 68.683594 L 84.847656 68.363281 C 85.09375 67.710938 85.296875 67.042969 85.453125 66.359375 L 85.539062 65.972656 C 85.683594 65.300781 85.792969 64.621094 85.859375 63.9375 L 85.859375 63.648438 C 85.898438 62.921875 85.898438 62.191406 85.859375 61.460938 L 85.859375 61.292969 C 85.839844 60.488281 85.777344 59.683594 85.671875 58.886719 L 85.671875 58.480469 C 85.550781 57.71875 85.386719 56.949219 85.183594 56.175781 L 85.035156 55.789062 C 84.8125 54.996094 84.5625 54.1875 84.257812 53.378906 L 84.257812 53.175781 C 83.972656 52.386719 83.636719 51.59375 83.265625 50.804688 L 83.164062 50.585938 C 82.039062 52.332031 80.820312 54.019531 79.511719 55.636719 C 79.160156 56.046875 78.59375 56.207031 78.082031 56.035156 C 77.566406 55.867188 77.207031 55.402344 77.171875 54.859375 L 77.171875 53.734375 C 77.148438 53.410156 77.253906 53.089844 77.457031 52.839844 C 80.085938 49.402344 80.007812 44.609375 77.273438 41.257812 C 71.464844 34.179688 64.390625 28.25 56.414062 23.761719 C 54.292969 22.550781 52.171875 21.457031 50.050781 20.394531 C 51.464844 19.890625 53.027344 19.386719 54.746094 18.929688 C 55.867188 19.515625 56.992188 20.125 58.113281 20.765625 C 61.3125 22.609375 64.386719 24.65625 67.324219 26.894531 C 66.285156 22.984375 64.839844 19.191406 63.011719 15.578125 C 62.476562 14.503906 61.351562 13.84375 60.148438 13.894531 C 54.371094 14.257812 48.667969 15.433594 43.214844 17.382812 Z M 29.476562 32.703125 L 35.015625 34.605469 C 35.25 34.6875 35.425781 34.886719 35.480469 35.128906 C 35.535156 35.371094 35.460938 35.625 35.285156 35.800781 L 31.648438 39.4375 C 31.472656 39.613281 31.21875 39.6875 30.976562 39.632812 C 30.734375 39.578125 30.535156 39.402344 30.453125 39.167969 L 28.515625 33.628906 C 28.410156 33.359375 28.480469 33.050781 28.6875 32.847656 C 28.898438 32.644531 29.207031 32.589844 29.476562 32.703125 Z M 23.195312 47.773438 C 22.949219 47.648438 22.792969 47.398438 22.792969 47.125 C 22.792969 46.851562 22.949219 46.597656 23.195312 46.476562 L 28.449219 43.898438 C 28.671875 43.789062 28.933594 43.800781 29.148438 43.933594 C 29.359375 44.0625 29.488281 44.292969 29.492188 44.539062 L 29.492188 49.691406 C 29.488281 49.941406 29.359375 50.167969 29.148438 50.300781 C 28.933594 50.429688 28.671875 50.441406 28.449219 50.332031 Z M 34.980469 59.660156 L 29.476562 61.546875 C 29.21875 61.628906 28.9375 61.558594 28.746094 61.367188 C 28.554688 61.175781 28.484375 60.894531 28.566406 60.636719 L 30.46875 55.097656 C 30.550781 54.863281 30.75 54.6875 30.992188 54.632812 C 31.234375 54.578125 31.488281 54.652344 31.664062 54.828125 L 35.300781 58.464844 C 35.476562 58.648438 35.542969 58.90625 35.476562 59.152344 C 35.410156 59.394531 35.222656 59.589844 34.980469 59.660156 Z M 46.175781 61.628906 L 43.601562 66.882812 C 43.480469 67.128906 43.226562 67.285156 42.953125 67.285156 C 42.679688 67.285156 42.425781 67.128906 42.304688 66.882812 L 39.730469 61.628906 C 39.617188 61.40625 39.632812 61.144531 39.761719 60.929688 C 39.890625 60.71875 40.121094 60.589844 40.367188 60.585938 L 45.519531 60.585938 C 45.769531 60.589844 45.996094 60.71875 46.128906 60.929688 C 46.257812 61.144531 46.269531 61.40625 46.160156 61.628906 Z M 56.464844 61.628906 L 50.925781 59.726562 C 50.691406 59.644531 50.515625 59.445312 50.460938 59.203125 C 50.40625 58.960938 50.480469 58.707031 50.65625 58.53125 L 54.292969 54.894531 C 54.46875 54.71875 54.722656 54.644531 54.964844 54.699219 C 55.207031 54.753906 55.402344 54.929688 55.488281 55.164062 L 57.371094 60.570312 C 57.511719 60.84375 57.457031 61.179688 57.242188 61.398438 C 57.023438 61.621094 56.691406 61.679688 56.414062 61.546875 Z M 62.710938 46.558594 C 62.957031 46.683594 63.109375 46.933594 63.109375 47.207031 C 63.109375 47.484375 62.957031 47.734375 62.710938 47.855469 L 57.457031 50.433594 C 57.234375 50.542969 56.96875 50.53125 56.757812 50.402344 C 56.546875 50.269531 56.417969 50.042969 56.414062 49.792969 L 56.414062 44.558594 C 56.417969 44.308594 56.546875 44.078125 56.757812 43.949219 C 56.96875 43.820312 57.234375 43.808594 57.457031 43.917969 Z M 50.925781 34.671875 L 56.414062 32.703125 C 56.671875 32.621094 56.953125 32.691406 57.144531 32.882812 C 57.335938 33.074219 57.402344 33.355469 57.320312 33.613281 L 55.417969 39.152344 C 55.335938 39.386719 55.140625 39.5625 54.894531 39.617188 C 54.652344 39.671875 54.398438 39.597656 54.222656 39.421875 L 50.585938 35.785156 C 50.421875 35.601562 50.359375 35.347656 50.425781 35.109375 C 50.488281 34.867188 50.671875 34.679688 50.90625 34.605469 Z M 53.046875 47.097656 C 53.046875 52.679688 48.523438 57.203125 42.945312 57.203125 C 37.367188 57.203125 32.84375 52.679688 32.84375 47.097656 C 32.84375 41.519531 37.367188 36.996094 42.945312 36.996094 C 48.523438 36.996094 53.046875 41.519531 53.046875 47.097656 Z M 43.585938 27.382812 L 46.160156 32.636719 C 46.269531 32.859375 46.257812 33.121094 46.128906 33.335938 C 45.996094 33.546875 45.769531 33.675781 45.519531 33.679688 L 40.367188 33.679688 C 40.121094 33.675781 39.890625 33.546875 39.761719 33.335938 C 39.632812 33.121094 39.617188 32.859375 39.730469 32.636719 L 42.304688 27.382812 C 42.429688 27.144531 42.675781 26.996094 42.945312 26.996094 C 43.210938 26.996094 43.457031 27.144531 43.585938 27.382812 Z M 43.585938 27.382812 "/>
<path style=" stroke:none;fill-rule:nonzero;fill:url(#linear3);" d="M 0.199219 35.3125 L 0.199219 35.71875 C 0.324219 36.480469 0.484375 37.25 0.6875 38.023438 L 0.804688 38.429688 C 1.023438 39.234375 1.277344 40.113281 1.578125 40.851562 L 1.578125 41.019531 C 1.882812 41.8125 2.21875 42.605469 2.574219 43.410156 L 2.671875 43.628906 C 5.9375 38.746094 9.855469 34.332031 14.324219 30.515625 C 15.429688 24.820312 17.304688 19.304688 19.898438 14.113281 C 14.53125 14.332031 9.382812 16.292969 5.234375 19.707031 L 5.03125 19.890625 C 4.5 20.382812 4.007812 20.914062 3.550781 21.472656 L 3.363281 21.707031 C 2.441406 22.855469 1.703125 24.140625 1.175781 25.515625 L 1.039062 25.832031 C 0.796875 26.488281 0.59375 27.15625 0.433594 27.835938 L 0.351562 28.226562 C 0.203125 28.898438 0.0976562 29.578125 0.03125 30.261719 L 0.03125 30.53125 C -0.0117188 31.261719 -0.0117188 31.992188 0.03125 32.71875 L 0.03125 32.886719 C 0.0429688 33.699219 0.0976562 34.507812 0.199219 35.3125 Z M 0.199219 35.3125 "/>
<path style=" stroke:none;fill-rule:nonzero;fill:url(#linear4);" d="M 27.792969 20.851562 C 30.214844 19.453125 32.675781 18.191406 35.167969 17.078125 C 35.46875 16.882812 35.636719 16.53125 35.59375 16.171875 C 35.550781 15.816406 35.304688 15.511719 34.964844 15.394531 C 33.5625 15.082031 32.175781 14.816406 30.804688 14.601562 C 30.242188 14.496094 29.773438 14.109375 29.558594 13.578125 C 29.34375 13.046875 29.414062 12.445312 29.746094 11.976562 C 30.113281 11.472656 30.726562 11.214844 31.34375 11.304688 C 34.953125 11.855469 38.511719 12.691406 41.984375 13.8125 C 42.597656 14.007812 43.257812 14.007812 43.871094 13.8125 C 49.097656 12.101562 54.523438 11.078125 60.015625 10.765625 L 59.914062 10.628906 C 59.398438 9.890625 58.863281 9.1875 58.316406 8.523438 L 58.164062 8.324219 C 57.609375 7.667969 57.050781 7.042969 56.480469 6.453125 L 56.160156 6.132812 C 55.585938 5.574219 55.027344 5.046875 54.476562 4.550781 L 54.15625 4.300781 C 53.53125 3.769531 52.882812 3.277344 52.203125 2.816406 L 52.085938 2.816406 C 51.46875 2.386719 50.828125 1.996094 50.167969 1.640625 L 49.898438 1.503906 C 49.25 1.207031 48.589844 0.949219 47.910156 0.730469 L 47.523438 0.613281 C 46.855469 0.410156 46.175781 0.253906 45.488281 0.140625 L 45.148438 0.140625 C 43.832031 -0.046875 42.496094 -0.046875 41.175781 0.140625 L 40.707031 0.140625 C 40.199219 0.140625 39.710938 0.308594 39.207031 0.425781 L 38.9375 0.425781 C 38.367188 0.582031 37.804688 0.765625 37.253906 0.980469 L 36.851562 1.152344 C 36.390625 1.339844 35.929688 1.550781 35.46875 1.773438 L 35.117188 1.941406 C 34.566406 2.234375 34.003906 2.554688 33.433594 2.902344 L 33.179688 3.070312 C 32.71875 3.382812 32.257812 3.722656 31.800781 4.082031 L 31.480469 4.332031 C 30.398438 5.257812 29.390625 6.265625 28.464844 7.347656 L 28.230469 7.617188 C 27.207031 8.792969 26.261719 10.035156 25.402344 11.335938 L 25.285156 11.503906 C 22.242188 16.273438 19.96875 21.488281 18.550781 26.960938 C 21.496094 24.730469 24.582031 22.6875 27.792969 20.851562 Z M 27.792969 20.851562 "/>
<path style=" stroke:none;fill-rule:nonzero;fill:url(#linear5);" d="M 72.085938 30.933594 C 76.292969 34.652344 79.992188 38.910156 83.082031 43.597656 C 83.882812 41.886719 84.535156 40.113281 85.035156 38.292969 L 85.035156 38.039062 C 85.246094 37.222656 85.421875 36.414062 85.554688 35.617188 L 85.554688 35.328125 C 85.683594 34.53125 85.765625 33.730469 85.808594 32.921875 C 85.851562 32.160156 85.851562 31.394531 85.808594 30.632812 L 85.808594 30.414062 C 85.746094 29.695312 85.636719 28.980469 85.488281 28.273438 L 85.488281 27.90625 C 85.328125 27.222656 85.125 26.554688 84.882812 25.902344 L 84.746094 25.597656 C 84.214844 24.230469 83.476562 22.953125 82.558594 21.808594 L 82.355469 21.539062 C 81.914062 21.003906 81.433594 20.5 80.925781 20.023438 L 80.621094 19.738281 C 80.089844 19.261719 79.527344 18.816406 78.9375 18.410156 L 78.667969 18.222656 C 78.082031 17.828125 77.476562 17.460938 76.851562 17.128906 L 76.617188 16.945312 C 75.957031 16.605469 75.269531 16.304688 74.542969 16.019531 L 74.089844 15.832031 C 73.394531 15.574219 72.671875 15.339844 71.917969 15.125 L 71.378906 14.992188 C 70.605469 14.789062 69.832031 14.621094 69.023438 14.46875 L 68.636719 14.46875 C 67.882812 14.34375 67.109375 14.246094 66.3125 14.164062 L 65.976562 14.164062 C 68.480469 19.167969 70.316406 24.476562 71.429688 29.957031 C 71.542969 30.34375 71.773438 30.683594 72.085938 30.933594 Z M 72.085938 30.933594 "/>
</g>
</svg>
