<svg width="392.6014014319047" height="41.941320662041065" viewBox="0 0 392.6014014319047 41.941320662041065" class="css-1j8o68f"><defs id="SvgjsDefs1341"><linearGradient id="SvgjsLinearGradient1348"><stop id="SvgjsStop1349" stop-color="#ef4136" offset="0"></stop><stop id="SvgjsStop1350" stop-color="#fbb040" offset="1"></stop></linearGradient></defs><g id="SvgjsG1342" featurekey="nameLeftFeature-0" transform="matrix(0.6967921453926476,0,0,0.6967921453926476,-2.2297337355847584,5.401171906859804)" fill="#111111"><path d="M22.52 20.32 c2.08 0 3.68 0.76 4.76 2.2 c1.04 1.44 1.56 3.48 1.56 6.08 l0 3.52 c0 2.32 -0.52 4.2 -1.52 5.64 c-1.04 1.48 -2.68 2.24 -4.88 2.24 l-18.04 0 c-0.36 0 -1.16 -0.12 -1.16 -1.36 l0 -3.2 c0 -1.24 0.8 -1.36 1.16 -1.36 l17.08 0 c0.68 0 0.92 -0.28 1.08 -0.52 c0.24 -0.4 0.36 -0.96 0.36 -1.68 l0 -3.44 c0 -1.96 -0.8 -2.2 -1.4 -2.2 l-12 0 c-1.68 0 -3.52 -0.24 -4.76 -1.88 c-1 -1.4 -1.56 -3.64 -1.56 -6.4 l0 -3.04 c0 -2.32 0.52 -4.24 1.56 -5.68 c1.04 -1.48 2.64 -2.2 4.84 -2.2 l17.24 0 c0.32 0 1.12 0.12 1.12 1.36 l0 3.2 c0 1.24 -0.8 1.36 -1.12 1.36 l-16.28 0 c-0.68 0 -0.92 0.28 -1.08 0.52 c-0.2 0.4 -0.32 0.96 -0.32 1.68 l0 2.96 c0 1.96 0.76 2.2 1.36 2.2 l12 0 z M65.609 9.96 c0.8 1 1.36 2.32 1.72 3.92 c0.32 1.56 0.52 3.48 0.52 5.68 l0 7.92 c0 2.24 -0.2 4.16 -0.52 5.72 c-0.36 1.6 -0.92 2.92 -1.72 3.96 c-0.8 1 -1.84 1.76 -3.12 2.2 c-1.24 0.44 -2.76 0.68 -4.52 0.68 l-9.76 0 c-1.76 0 -3.28 -0.24 -4.48 -0.68 c-1.28 -0.44 -2.32 -1.2 -3.12 -2.24 c-0.76 -1 -1.36 -2.32 -1.72 -3.92 c-0.36 -1.56 -0.52 -3.48 -0.52 -5.72 l0 -7.92 c0 -2.24 0.16 -4.12 0.52 -5.68 c0.36 -1.6 0.96 -2.92 1.72 -3.92 c0.8 -1 1.84 -1.76 3.12 -2.24 c1.24 -0.44 2.72 -0.68 4.48 -0.68 l9.76 0 c1.76 0 3.28 0.24 4.52 0.68 c1.28 0.48 2.32 1.24 3.12 2.24 z M61.888999999999996 18.88 c0 -1.16 -0.04 -2.16 -0.2 -2.96 c-0.12 -0.76 -0.36 -1.36 -0.68 -1.8 c-0.28 -0.4 -0.68 -0.68 -1.2 -0.88 c-0.52 -0.16 -1.2 -0.28 -2.04 -0.28 l-9.36 0 c-0.84 0 -1.52 0.12 -2.04 0.28 c-0.52 0.2 -0.92 0.48 -1.2 0.88 c-0.32 0.44 -0.52 1.04 -0.68 1.8 c-0.12 0.8 -0.2 1.8 -0.2 2.96 l0 9.32 c0 1.16 0.08 2.16 0.2 2.96 c0.16 0.72 0.36 1.36 0.68 1.76 c0.28 0.44 0.68 0.72 1.2 0.88 c0.52 0.2 1.2 0.28 2.04 0.28 l9.36 0 c0.84 0 1.52 -0.08 2.04 -0.28 c0.52 -0.16 0.92 -0.44 1.2 -0.88 c0.32 -0.4 0.56 -1.04 0.68 -1.76 c0.16 -0.8 0.2 -1.8 0.2 -2.96 l0 -9.32 z M100.458 34.08 c0.36 0 1.12 0.16 1.12 1.4 l0 3.16 c0 1.24 -0.76 1.4 -1.12 1.4 l-13.2 0 c-1.76 0 -3.28 -0.24 -4.48 -0.68 c-1.28 -0.44 -2.32 -1.2 -3.12 -2.24 c-0.8 -1 -1.36 -2.32 -1.72 -3.92 c-0.36 -1.56 -0.56 -3.48 -0.56 -5.72 l0 -19.04 c0 -1.28 0.8 -1.4 1.16 -1.4 l3.68 0 c0.32 0 1.12 0.12 1.12 1.4 l0 19.72 c0 1.2 0.04 2.2 0.2 3 c0.12 0.72 0.36 1.32 0.68 1.76 c0.28 0.44 0.68 0.72 1.16 0.88 c0.56 0.2 1.24 0.28 2.08 0.28 l13 0 z M132.547 10.760000000000002 l11.24 27.72 c0.16 0.36 0.2 0.72 0.12 0.96 c-0.08 0.2 -0.24 0.6 -0.88 0.6 l-4.28 0 c-0.56 0 -0.96 -0.32 -1.16 -0.88 l-9.92 -24.76 l-0.04 -0.08 l-0.16 0 s-0.04 0.04 -0.08 0.12 l-5.12 12.96 l4.96 0 c0.52 0 0.96 0.32 1.16 0.8 l1.44 3.56 c0.12 0.4 0.08 0.84 -0.16 1.16 c-0.2 0.36 -0.6 0.56 -1.04 0.56 l-8.76 0 l-2.28 5.72 c-0.2 0.52 -0.6 0.84 -1.12 0.84 l-4.4 0 c-0.64 0 -0.84 -0.36 -0.88 -0.6 c-0.08 -0.24 -0.04 -0.6 0.08 -0.96 l11.16 -27.72 c0.56 -1.44 1.16 -2.4 1.76 -2.92 c0.16 -0.12 0.36 -0.28 0.6 -0.4 c0.8 -0.56 1.76 -0.84 2.76 -0.84 c2.2 0 4.12 1.48 4.76 3.56 z M181.556 38.28 c0.16 0.24 0.2 0.56 0.16 0.96 c-0.08 0.48 -0.44 0.8 -0.92 0.8 l-4.4 0 c-0.36 0 -0.64 -0.08 -0.84 -0.24 c-0.16 -0.12 -0.28 -0.32 -0.44 -0.56 l-7.24 -12.84 l-8.44 0 l0 12.24 c0 1.24 -0.76 1.4 -1.12 1.4 l-3.64 0 c-0.36 0 -1.16 -0.16 -1.16 -1.4 l0 -16.8 c0 -1.24 0.8 -1.36 1.16 -1.36 l17.4 0 c1.04 0 1.72 -0.28 2.12 -0.88 c0.44 -0.6 0.64 -1.56 0.64 -2.88 s-0.2 -2.28 -0.64 -2.88 c-0.4 -0.6 -1.08 -0.88 -2.12 -0.88 l-17.4 0 c-0.36 0 -1.16 -0.12 -1.16 -1.36 l0 -3.16 c0 -1.28 0.8 -1.4 1.16 -1.4 l18.44 0 c2.72 0 4.72 0.84 5.92 2.56 c1.08 1.64 1.68 3.96 1.76 7 l0 0.24 c-0.08 3.08 -0.68 5.4 -1.76 7 c-1 1.36 -2.52 2.2 -4.48 2.44 z"></path></g><g id="SvgjsG1343" featurekey="inlineSymbolFeature-0" transform="matrix(0.7501044388383004,0,0,0.7501044388383004,139.1303390743315,-3.0205246055144177)" fill="url(#SvgjsLinearGradient1348)"><title xmlns="http://www.w3.org/2000/svg">Sun Science</title><g xmlns="http://www.w3.org/2000/svg" data-name="Layer 2"><path d="M27.81,59l0,0a10.43,10.43,0,0,0,1.24.49l.18.06a9.6,9.6,0,0,0,1.23.29l.19,0a8.5,8.5,0,0,0,2.61,0l.2,0a9.66,9.66,0,0,0,1.21-.28l.23-.07a10.48,10.48,0,0,0,1.18-.46l.17-.08a11.74,11.74,0,0,0,1.13-.63l.09-.05a13.52,13.52,0,0,0,1.11-.8l.21-.17q.52-.43,1-.93l.22-.22c.33-.34.66-.7,1-1.08l.14-.18q.45-.55.87-1.15l.1-.14a37.64,37.64,0,0,1-9.48-1.78,2.15,2.15,0,0,0-1.3,0,37.75,37.75,0,0,1-9.49,1.8A15.72,15.72,0,0,0,27.81,59Z"></path><path d="M6.51,42a10.46,10.46,0,0,0,.19,1.26l.05.23a9.61,9.61,0,0,0,.36,1.19l.08.19a8.48,8.48,0,0,0,1.3,2.25l.13.16a9.63,9.63,0,0,0,.84.9l.18.17a10.44,10.44,0,0,0,1,.78l.16.11a11.75,11.75,0,0,0,1.06.64l.13.07c.39.2.8.38,1.21.55l.28.11q.62.23,1.28.41l.33.08c.45.12.91.22,1.39.3l.24,0q.66.11,1.35.17l.22,0q-.54-1.05-1-2.19a1,1,0,0,1,1.39-1.3h0a1,1,0,0,1,.46.49q.4.95.85,1.83a2.17,2.17,0,0,0,2.09,1.18,33.65,33.65,0,0,0,5.22-.77.54.54,0,0,0,.11-1c-1.48-.67-2.95-1.41-4.39-2.25A43.53,43.53,0,0,1,8.16,34.08l-.06.13c-.22.48-.42.95-.59,1.42l0,.1c-.18.48-.33,1-.46,1.44l-.07.24q-.18.69-.29,1.37l0,.24a13.45,13.45,0,0,0-.14,1.37s0,.07,0,.1a11.73,11.73,0,0,0,0,1.3C6.5,41.86,6.5,41.91,6.51,42Z"></path><path d="M32.12,14.51l-.14,0a47.43,47.43,0,0,0-8,3.68A41.3,41.3,0,0,0,9.63,31.39a1.15,1.15,0,0,0,0,1.22,34.22,34.22,0,0,0,4.79,6A51,51,0,0,1,14,32c0-.62,0-1.24,0-1.85a1,1,0,0,1,.26-.63l0,0a1,1,0,0,1,1.72.71q0,.89,0,1.79a47.46,47.46,0,0,0,.69,8.08,1.93,1.93,0,0,0,.67,1.15A47.71,47.71,0,0,0,24,45.86a41.8,41.8,0,0,0,17.95,5.78A2.2,2.2,0,0,0,44,50.42a33.77,33.77,0,0,0,2-5.08.49.49,0,0,0-.77-.53A51,51,0,0,1,41,47.59c-.45.26-.91.5-1.37.74a1,1,0,0,1-.74.08h0a1,1,0,0,1-.17-1.82q.66-.35,1.31-.73a47.29,47.29,0,0,0,6.71-4.69,1.76,1.76,0,0,0,.6-1A47.67,47.67,0,0,0,48,32q0-1.09,0-2.17A1,1,0,0,1,49.57,29l0,0a1,1,0,0,1,.36.72c0,.74.05,1.48.05,2.23a43.53,43.53,0,0,1-4.28,19.6l.22,0q.69-.07,1.35-.17l.23,0c.48-.08.94-.19,1.4-.31l.32-.08q.66-.18,1.28-.42l.28-.11c.42-.17.83-.35,1.22-.55l.13-.07a11.74,11.74,0,0,0,1.07-.65l.16-.1a10.48,10.48,0,0,0,1-.79l.18-.17a9.65,9.65,0,0,0,.84-.9l.13-.16a8.49,8.49,0,0,0,1.3-2.25l.08-.19a9.63,9.63,0,0,0,.36-1.19l.05-.23A10.46,10.46,0,0,0,57.49,42c0-.06,0-.11,0-.17a11.73,11.73,0,0,0,0-1.3s0-.07,0-.1A13.47,13.47,0,0,0,57.38,39l0-.24q-.11-.68-.29-1.37L57,37.16c-.13-.47-.28-.95-.46-1.43l0-.12c-.17-.47-.37-.94-.59-1.41l-.06-.13a34,34,0,0,1-2.17,3,.79.79,0,0,1-1.39-.46c0-.24,0-.46,0-.67a.76.76,0,0,1,.17-.53l0,0a5.55,5.55,0,0,0-.11-6.88A43.78,43.78,0,0,0,40,18.14c-1.26-.72-2.52-1.37-3.78-2,.84-.3,1.77-.6,2.79-.87q1,.52,2,1.09a51.28,51.28,0,0,1,5.47,3.64,34.37,34.37,0,0,0-2.56-6.72,1.81,1.81,0,0,0-1.7-1,36.75,36.75,0,0,0-10.06,2.07ZM24,23.45l3.29,1.13a.43.43,0,0,1,.16.71l-2.16,2.16a.43.43,0,0,1-.71-.16L23.43,24A.43.43,0,0,1,24,23.45ZM20.27,32.4a.43.43,0,0,1,0-.77l3.12-1.53a.43.43,0,0,1,.62.38v3.06a.43.43,0,0,1-.62.38Zm7,7.06L24,40.58a.43.43,0,0,1-.54-.54l1.13-3.29a.43.43,0,0,1,.71-.16l2.16,2.16A.43.43,0,0,1,27.27,39.46Zm6.65,1.17-1.53,3.12a.43.43,0,0,1-.77,0l-1.53-3.12a.43.43,0,0,1,.38-.62h3.06A.43.43,0,0,1,33.91,40.63Zm6.11,0-3.29-1.13a.43.43,0,0,1-.16-.71l2.16-2.16a.43.43,0,0,1,.71.16L40.57,40A.43.43,0,0,1,40,40.58Zm3.71-8.95a.43.43,0,0,1,0,.77l-3.12,1.53a.43.43,0,0,1-.62-.38V30.49a.43.43,0,0,1,.62-.38Zm-7-7.06L40,23.45a.43.43,0,0,1,.54.54l-1.13,3.29a.43.43,0,0,1-.71.16l-2.16-2.16A.43.43,0,0,1,36.73,24.58ZM38,32a6,6,0,1,1-6-6A6,6,0,0,1,38,32ZM32.38,20.29l1.53,3.12a.43.43,0,0,1-.38.62H30.47a.43.43,0,0,1-.38-.62l1.53-3.12A.43.43,0,0,1,32.38,20.29Z"></path><path d="M6.61,25l0,.24q.11.68.29,1.37l.07.24c.13.48.28,1,.46,1.44l0,.1c.18.47.38.94.59,1.42l.06.13A38,38,0,0,1,15,22.15a38,38,0,0,1,3.31-9.74A14.64,14.64,0,0,0,9.6,15.73l-.12.11a9.57,9.57,0,0,0-.88.94l-.11.14a8.5,8.5,0,0,0-1.3,2.26l-.08.19a9.64,9.64,0,0,0-.36,1.19l-.05.23A10.47,10.47,0,0,0,6.51,22c0,.05,0,.11,0,.16a11.73,11.73,0,0,0,0,1.3s0,.07,0,.1A13.44,13.44,0,0,0,6.61,25Z"></path><path d="M23,16.41c1.44-.83,2.9-1.58,4.38-2.24a.56.56,0,0,0-.12-1q-1.25-.28-2.47-.47a1,1,0,0,1-.63-1.56v0a1,1,0,0,1,.95-.4,40.56,40.56,0,0,1,6.32,1.49,1.84,1.84,0,0,0,1.12,0,37.72,37.72,0,0,1,9.59-1.81l-.06-.08q-.46-.66-.95-1.25l-.09-.12c-.33-.39-.66-.76-1-1.11l-.19-.19q-.51-.5-1-.94l-.19-.15A13.5,13.5,0,0,0,37.5,5.7l-.07,0A11.74,11.74,0,0,0,36.29,5l-.16-.08a10.46,10.46,0,0,0-1.18-.46l-.23-.07a9.64,9.64,0,0,0-1.21-.28l-.2,0a8.41,8.41,0,0,0-2.36,0l-.28,0c-.3,0-.59.1-.89.17l-.16,0a10,10,0,0,0-1,.33l-.24.1q-.41.17-.82.37l-.21.1q-.49.26-1,.57l-.15.1q-.41.28-.82.6l-.19.15A16.43,16.43,0,0,0,23.4,8.39l-.14.16a21.13,21.13,0,0,0-1.68,2.21l-.07.1a32,32,0,0,0-4,9.18A51.28,51.28,0,0,1,23,16.41Z"></path><path d="M49.31,22.4a37.76,37.76,0,0,1,6.53,7.52l0,0A19.66,19.66,0,0,0,57,26.77l0-.15q.19-.73.31-1.44l0-.17a13.47,13.47,0,0,0,.15-1.43s0,0,0,0a11.72,11.72,0,0,0,0-1.36s0-.09,0-.13a10.47,10.47,0,0,0-.19-1.27l0-.22a9.61,9.61,0,0,0-.36-1.19l-.08-.18a8.49,8.49,0,0,0-1.3-2.25l-.12-.16a9.64,9.64,0,0,0-.85-.9l-.18-.17a10.47,10.47,0,0,0-1-.79l-.16-.11a11.73,11.73,0,0,0-1.08-.65L52,14.09c-.39-.2-.8-.38-1.23-.55l-.27-.11q-.62-.23-1.29-.42l-.32-.08c-.46-.12-.92-.22-1.4-.31l-.23,0q-.67-.11-1.38-.18l-.2,0a37.71,37.71,0,0,1,3.24,9.38A1.16,1.16,0,0,0,49.31,22.4Z"></path></g></g><g id="SvgjsG1344" featurekey="nameRightFeature-0" transform="matrix(0.6959597181852857,0,0,0.6959597181852857,183.28633918019386,5.434504288527661)" fill="#111111"><path d="M55.209 7.039999999999999 c0.32 0 1.12 0.12 1.12 1.4 l0 26.44 c0 1.96 -0.28 3.28 -0.84 4 c-0.56 0.76 -1.44 1.16 -2.6 1.16 l-2.92 0 c-0.56 0 -1 -0.04 -1.36 -0.12 c-0.4 -0.08 -0.76 -0.2 -1.08 -0.44 c-0.32 -0.2 -0.6 -0.48 -0.88 -0.88 c-0.28 -0.36 -0.6 -0.84 -0.92 -1.48 l-12.68 -22.48 c-0.08 -0.12 -0.12 -0.12 -0.12 -0.12 l-0.2 0 l0 24.12 c0 1.24 -0.76 1.4 -1.12 1.4 l-3.56 0 c-0.36 0 -1.16 -0.16 -1.16 -1.4 l0 -26.44 c0 -1.96 0.28 -3.28 0.84 -4.04 c0.56 -0.72 1.44 -1.12 2.6 -1.12 l3 0 c0.52 0 1 0.04 1.4 0.08 c0.44 0.08 0.8 0.24 1.12 0.48 c0.28 0.2 0.56 0.52 0.84 0.92 c0.28 0.36 0.56 0.84 0.88 1.44 l12.64 22.48 c0.04 0.12 0.08 0.12 0.12 0.12 l0.2 0 l0 -24.12 c0 -1.28 0.76 -1.4 1.12 -1.4 l3.56 0 z M89.898 32.84 c0.36 0 1.16 0.12 1.16 1.36 l0 4.4 c0 1.24 -0.8 1.36 -1.16 1.36 l-14.2 0 c-1.76 0 -3.24 -0.2 -4.48 -0.68 c-1.28 -0.44 -2.32 -1.16 -3.12 -2.2 c-0.76 -1 -1.36 -2.32 -1.72 -3.92 c-0.28 -1.32 -0.48 -2.92 -0.52 -4.8 l0 -0.2 l0.08 -5.04 c0.08 -0.36 0.24 -0.68 0.44 -1 c0.56 -1 1.56 -1.6 2.72 -1.68 l20.64 -0.04 c0.32 0 1.12 0.12 1.12 1.36 l0 3.16 c0 1.24 -0.8 1.4 -1.12 1.4 l-17.88 0 c-0.04 0 -0.08 2.88 -0.08 2.88 l0.08 0.68 c0.12 0.76 0.36 1.36 0.68 1.8 c0.32 0.4 0.68 0.68 1.2 0.88 c0.56 0.16 1.24 0.28 2.08 0.28 l14.08 0 z M89.938 6.960000000000001 c0.32 0 1.12 0.16 1.12 1.4 l0 3.16 c0 1.24 -0.8 1.4 -1.12 1.4 l-23 -0.04 c-0.32 0 -1.08 -0.12 -1.08 -1.36 l0 -3.12 c0 -1.28 0.76 -1.44 1.08 -1.44 l23 0 z M128.227 7.039999999999999 c0.36 0 1.16 0.12 1.16 1.36 l0 3.12 c0 1.32 -0.8 1.44 -1.16 1.44 l-10.28 0 l0 25.68 c0 1.24 -0.76 1.36 -1.12 1.36 l-3.68 0 c-0.32 0 -1.12 -0.12 -1.12 -1.36 l0 -25.68 l-10.28 0 c-0.36 0 -1.16 -0.12 -1.16 -1.44 l0 -3.12 c0 -1.24 0.8 -1.36 1.16 -1.36 l26.48 0 z M187.23600000000002 6.560000000000002 c0.64 0 0.84 0.36 0.88 0.6 c0.08 0.28 0.04 0.6 -0.08 0.96 l-8.92 27.68 c-0.6 1.48 -1.16 2.44 -1.76 2.96 c-0.16 0.12 -0.36 0.28 -0.6 0.4 c-0.8 0.56 -1.76 0.84 -2.76 0.84 c-2.2 0 -4.16 -1.48 -4.76 -3.56 l-0.28 -0.6 l-5.52 -18.44 l-5.92 18.4 c-0.6 1.48 -1.2 2.44 -1.76 2.96 c-0.2 0.12 -0.36 0.28 -0.6 0.4 c-0.8 0.56 -1.76 0.84 -2.76 0.84 c-2.2 0 -4.16 -1.48 -4.76 -3.56 l-0.28 -0.6 l-8.28 -27.72 c-0.16 -0.36 -0.16 -0.68 -0.08 -0.96 c0.04 -0.2 0.2 -0.6 0.84 -0.6 l4.28 0 c0.56 0 0.96 0.32 1.16 0.88 l7 24.04 c0 0.04 0.04 0.08 0.04 0.08 l0.16 -0.04 l0.04 -0.08 l7.56 -24 c0.24 -0.56 0.64 -0.88 1.16 -0.88 l4.52 0 c0.52 0 0.92 0.32 1.12 0.88 l7 24.04 c0 0.04 0.04 0.08 0.04 0.08 l0.16 -0.04 l0.04 -0.08 l7.56 -24 c0.24 -0.56 0.64 -0.88 1.16 -0.88 l4.4 0 z M224.965 9.96 c0.8 1 1.36 2.32 1.72 3.92 c0.32 1.56 0.52 3.48 0.52 5.68 l0 7.92 c0 2.24 -0.2 4.16 -0.52 5.72 c-0.36 1.6 -0.92 2.92 -1.72 3.96 c-0.8 1 -1.84 1.76 -3.12 2.2 c-1.24 0.44 -2.76 0.68 -4.52 0.68 l-9.76 0 c-1.76 0 -3.28 -0.24 -4.48 -0.68 c-1.28 -0.44 -2.32 -1.2 -3.12 -2.24 c-0.76 -1 -1.36 -2.32 -1.72 -3.92 c-0.36 -1.56 -0.52 -3.48 -0.52 -5.72 l0 -7.92 c0 -2.24 0.16 -4.12 0.52 -5.68 c0.36 -1.6 0.96 -2.92 1.72 -3.92 c0.8 -1 1.84 -1.76 3.12 -2.24 c1.24 -0.44 2.72 -0.68 4.48 -0.68 l9.76 0 c1.76 0 3.28 0.24 4.52 0.68 c1.28 0.48 2.32 1.24 3.12 2.24 z M221.245 18.88 c0 -1.16 -0.04 -2.16 -0.2 -2.96 c-0.12 -0.76 -0.36 -1.36 -0.68 -1.8 c-0.28 -0.4 -0.68 -0.68 -1.2 -0.88 c-0.52 -0.16 -1.2 -0.28 -2.04 -0.28 l-9.36 0 c-0.84 0 -1.52 0.12 -2.04 0.28 c-0.52 0.2 -0.92 0.48 -1.2 0.88 c-0.32 0.44 -0.52 1.04 -0.68 1.8 c-0.12 0.8 -0.2 1.8 -0.2 2.96 l0 9.32 c0 1.16 0.08 2.16 0.2 2.96 c0.16 0.72 0.36 1.36 0.68 1.76 c0.28 0.44 0.68 0.72 1.2 0.88 c0.52 0.2 1.2 0.28 2.04 0.28 l9.36 0 c0.84 0 1.52 -0.08 2.04 -0.28 c0.52 -0.16 0.92 -0.44 1.2 -0.88 c0.32 -0.4 0.56 -1.04 0.68 -1.76 c0.16 -0.8 0.2 -1.8 0.2 -2.96 l0 -9.32 z M264.774 38.28 c0.16 0.24 0.2 0.56 0.16 0.96 c-0.08 0.48 -0.44 0.8 -0.92 0.8 l-4.4 0 c-0.36 0 -0.64 -0.08 -0.84 -0.24 c-0.16 -0.12 -0.28 -0.32 -0.44 -0.56 l-7.24 -12.84 l-8.44 0 l0 12.24 c0 1.24 -0.76 1.4 -1.12 1.4 l-3.64 0 c-0.36 0 -1.16 -0.16 -1.16 -1.4 l0 -16.8 c0 -1.24 0.8 -1.36 1.16 -1.36 l17.4 0 c1.04 0 1.72 -0.28 2.12 -0.88 c0.44 -0.6 0.64 -1.56 0.64 -2.88 s-0.2 -2.28 -0.64 -2.88 c-0.4 -0.6 -1.08 -0.88 -2.12 -0.88 l-17.4 0 c-0.36 0 -1.16 -0.12 -1.16 -1.36 l0 -3.16 c0 -1.28 0.8 -1.4 1.16 -1.4 l18.44 0 c2.72 0 4.72 0.84 5.92 2.56 c1.08 1.64 1.68 3.96 1.76 7 l0 0.24 c-0.08 3.08 -0.68 5.4 -1.76 7 c-1 1.36 -2.52 2.2 -4.48 2.44 z M293.663 26.28 l6.92 12 c0.16 0.2 0.2 0.52 0.16 0.92 c-0.04 0.52 -0.36 0.84 -0.92 0.84 l-4.32 0 c-0.4 0 -0.68 -0.08 -0.84 -0.24 c-0.16 -0.12 -0.32 -0.32 -0.44 -0.56 l-6.24 -10.96 c-0.44 -0.8 -0.88 -1.32 -1.32 -1.56 c-0.48 -0.28 -1.2 -0.4 -2.16 -0.4 l-4.04 0 l0 12.32 c0 1.24 -0.8 1.4 -1.12 1.4 l-3.68 0 c-0.32 0 -1.16 -0.16 -1.16 -1.4 l0 -30.2 c0 -1.28 0.84 -1.4 1.16 -1.4 l3.68 0 c0.32 0 1.12 0.12 1.12 1.4 l0 11.96 l3.68 0 c0.52 0 0.96 -0.04 1.28 -0.08 s0.6 -0.12 0.84 -0.24 c0.2 -0.12 0.44 -0.32 0.64 -0.56 c0.2 -0.28 0.44 -0.6 0.68 -1 l6.04 -10.68 c0.12 -0.28 0.28 -0.44 0.44 -0.56 c0.16 -0.16 0.44 -0.24 0.88 -0.24 l3.96 0 c0.48 0 0.8 0.24 0.92 0.68 c0.04 0.36 0 0.68 -0.12 0.96 l-6.6 11.6 l-1.08 1.8 l-0.76 1.04 c0.8 0.76 1.6 1.84 2.4 3.16 z"></path></g></svg>