<?xml version="1.0" encoding="UTF-8"?>
<svg xmlns="http://www.w3.org/2000/svg" xmlnsXlink="http://www.w3.org/1999/xlink" width="393px" height="129px" viewBox="0 0 391 129" version="1.1">
<defs>
<linearGradient id="linear0" gradientUnits="userSpaceOnUse" x1="13.915444" y1="81.209679" x2="26.824644" y2="81.209679" gradientTransform="matrix(2.448869,0,0,0.995555,3.357555,14.545245)">
<stop offset="0" style="stop-color:rgb(93.72549%,25.490196%,21.176471%);stop-opacity:1;"/>
<stop offset="1" style="stop-color:rgb(98.431373%,69.019608%,25.098039%);stop-opacity:1;"/>
</linearGradient>
<linearGradient id="linear1" gradientUnits="userSpaceOnUse" x1="5.911591" y1="37.499676" x2="25.173773" y2="37.499676" gradientTransform="matrix(1.716086,0,0,1.420665,3.357555,14.545245)">
<stop offset="0" style="stop-color:rgb(93.72549%,25.490196%,21.176471%);stop-opacity:1;"/>
<stop offset="1" style="stop-color:rgb(98.431373%,69.019608%,25.098039%);stop-opacity:1;"/>
</linearGradient>
<linearGradient id="linear2" gradientUnits="userSpaceOnUse" x1="8.557378" y1="13.565962" x2="52.049065" y2="13.565962" gradientTransform="matrix(1.723164,0,0,1.41483,3.357555,14.545245)">
<stop offset="0" style="stop-color:rgb(93.72549%,25.490196%,21.176471%);stop-opacity:1;"/>
<stop offset="1" style="stop-color:rgb(98.431373%,69.019608%,25.098039%);stop-opacity:1;"/>
</linearGradient>
<linearGradient id="linear3" gradientUnits="userSpaceOnUse" x1="7.906704" y1="10.189509" x2="22.300104" y2="10.189509" gradientTransform="matrix(1.280538,0,0,1.903874,3.357555,14.545245)">
<stop offset="0" style="stop-color:rgb(93.72549%,25.490196%,21.176471%);stop-opacity:1;"/>
<stop offset="1" style="stop-color:rgb(98.431373%,69.019608%,25.098039%);stop-opacity:1;"/>
</linearGradient>
<linearGradient id="linear4" gradientUnits="userSpaceOnUse" x1="14.118642" y1="4.994062" x2="33.978271" y2="4.994062" gradientTransform="matrix(1.934213,0,0,1.260452,3.357555,14.545245)">
<stop offset="0" style="stop-color:rgb(93.72549%,25.490196%,21.176471%);stop-opacity:1;"/>
<stop offset="1" style="stop-color:rgb(98.431373%,69.019608%,25.098039%);stop-opacity:1;"/>
</linearGradient>
<linearGradient id="linear5" gradientUnits="userSpaceOnUse" x1="55.598171" y1="10.220825" x2="69.959908" y2="10.220825" gradientTransform="matrix(1.281376,0,0,1.902629,3.357555,14.545245)">
<stop offset="0" style="stop-color:rgb(93.72549%,25.490196%,21.176471%);stop-opacity:1;"/>
<stop offset="1" style="stop-color:rgb(98.431373%,69.019608%,25.098039%);stop-opacity:1;"/>
</linearGradient>
</defs>
<g id="surface1">
<path style=" stroke:none;fill-rule:nonzero;fill:rgb(100%,100%,100%);fill-opacity:1;" d="M 146.925781 60.269531 C 149.9375 60.269531 152.257812 61.371094 153.820312 63.460938 C 155.328125 65.554688 156.082031 68.515625 156.082031 72.292969 L 156.082031 77.402344 C 156.082031 80.773438 155.328125 83.5 153.878906 85.59375 C 152.371094 87.742188 149.996094 88.84375 146.808594 88.84375 L 120.671875 88.84375 C 120.152344 88.84375 118.992188 88.671875 118.992188 86.871094 L 118.992188 82.222656 C 118.992188 80.421875 120.152344 80.25 120.671875 80.25 L 145.417969 80.25 C 146.402344 80.25 146.75 79.84375 146.984375 79.492188 C 147.332031 78.914062 147.503906 78.101562 147.503906 77.054688 L 147.503906 72.058594 C 147.503906 69.210938 146.34375 68.863281 145.476562 68.863281 L 128.089844 68.863281 C 125.65625 68.863281 122.992188 68.515625 121.195312 66.132812 C 119.746094 64.101562 118.933594 60.847656 118.933594 56.839844 L 118.933594 52.425781 C 118.933594 49.058594 119.6875 46.269531 121.195312 44.179688 C 122.703125 42.027344 125.019531 40.984375 128.207031 40.984375 L 153.183594 40.984375 C 153.648438 40.984375 154.804688 41.15625 154.804688 42.957031 L 154.804688 47.605469 C 154.804688 49.40625 153.648438 49.582031 153.183594 49.582031 L 129.597656 49.582031 C 128.613281 49.582031 128.265625 49.988281 128.035156 50.335938 C 127.742188 50.917969 127.570312 51.730469 127.570312 52.773438 L 127.570312 57.074219 C 127.570312 59.917969 128.671875 60.269531 129.539062 60.269531 Z M 209.351562 45.222656 C 210.507812 46.675781 211.320312 48.59375 211.84375 50.917969 C 212.304688 53.179688 212.59375 55.96875 212.59375 59.164062 L 212.59375 70.664062 C 212.59375 73.917969 212.304688 76.707031 211.84375 78.972656 C 211.320312 81.292969 210.507812 83.210938 209.351562 84.722656 C 208.191406 86.171875 206.683594 87.277344 204.828125 87.917969 C 203.035156 88.554688 200.832031 88.902344 198.28125 88.902344 L 184.140625 88.902344 C 181.59375 88.902344 179.390625 88.554688 177.652344 87.917969 C 175.796875 87.277344 174.289062 86.171875 173.132812 84.664062 C 172.03125 83.210938 171.160156 81.292969 170.640625 78.972656 C 170.117188 76.707031 169.886719 73.917969 169.886719 70.664062 L 169.886719 59.164062 C 169.886719 55.910156 170.117188 53.179688 170.640625 50.917969 C 171.160156 48.59375 172.03125 46.675781 173.132812 45.222656 C 174.289062 43.773438 175.796875 42.667969 177.652344 41.972656 C 179.449219 41.332031 181.59375 40.984375 184.140625 40.984375 L 198.28125 40.984375 C 200.832031 40.984375 203.035156 41.332031 204.828125 41.972656 C 206.683594 42.667969 208.191406 43.773438 209.351562 45.222656 Z M 203.960938 58.175781 C 203.960938 56.492188 203.902344 55.039062 203.671875 53.878906 C 203.496094 52.773438 203.148438 51.902344 202.6875 51.265625 C 202.28125 50.683594 201.699219 50.277344 200.945312 49.988281 C 200.195312 49.753906 199.207031 49.582031 197.992188 49.582031 L 184.429688 49.582031 C 183.214844 49.582031 182.230469 49.753906 181.476562 49.988281 C 180.722656 50.277344 180.144531 50.683594 179.738281 51.265625 C 179.273438 51.902344 178.984375 52.773438 178.753906 53.878906 C 178.578125 55.039062 178.460938 56.492188 178.460938 58.175781 L 178.460938 71.710938 C 178.460938 73.394531 178.578125 74.847656 178.753906 76.007812 C 178.984375 77.054688 179.273438 77.984375 179.738281 78.5625 C 180.144531 79.203125 180.722656 79.609375 181.476562 79.84375 C 182.230469 80.132812 183.214844 80.25 184.429688 80.25 L 197.992188 80.25 C 199.207031 80.25 200.195312 80.132812 200.945312 79.84375 C 201.699219 79.609375 202.28125 79.203125 202.6875 78.5625 C 203.148438 77.984375 203.496094 77.054688 203.671875 76.007812 C 203.902344 74.847656 203.960938 73.394531 203.960938 71.710938 Z M 259.835938 80.25 C 260.359375 80.25 261.460938 80.480469 261.460938 82.28125 L 261.460938 86.871094 C 261.460938 88.671875 260.359375 88.902344 259.835938 88.902344 L 240.714844 88.902344 C 238.164062 88.902344 235.960938 88.554688 234.222656 87.917969 C 232.367188 87.277344 230.863281 86.171875 229.703125 84.664062 C 228.542969 83.210938 227.734375 81.292969 227.210938 78.972656 C 226.691406 76.707031 226.398438 73.917969 226.398438 70.664062 L 226.398438 43.015625 C 226.398438 41.15625 227.558594 40.984375 228.082031 40.984375 L 233.414062 40.984375 C 233.875 40.984375 235.035156 41.15625 235.035156 43.015625 L 235.035156 71.652344 C 235.035156 73.394531 235.09375 74.847656 235.324219 76.007812 C 235.5 77.054688 235.847656 77.925781 236.308594 78.5625 C 236.714844 79.203125 237.292969 79.609375 237.992188 79.84375 C 238.800781 80.132812 239.785156 80.25 241.003906 80.25 Z M 306.328125 46.386719 L 322.609375 86.636719 C 322.84375 87.160156 322.898438 87.683594 322.785156 88.03125 C 322.667969 88.324219 322.4375 88.902344 321.507812 88.902344 L 315.308594 88.902344 C 314.496094 88.902344 313.917969 88.4375 313.628906 87.625 L 299.257812 51.671875 L 299.199219 51.554688 L 298.964844 51.554688 C 298.964844 51.554688 298.910156 51.613281 298.851562 51.730469 L 291.433594 70.546875 L 298.617188 70.546875 C 299.371094 70.546875 300.007812 71.011719 300.300781 71.710938 L 302.386719 76.878906 C 302.558594 77.460938 302.5 78.101562 302.152344 78.5625 C 301.863281 79.085938 301.285156 79.378906 300.648438 79.378906 L 287.957031 79.378906 L 284.652344 87.683594 C 284.363281 88.4375 283.785156 88.902344 283.03125 88.902344 L 276.65625 88.902344 C 275.730469 88.902344 275.4375 88.378906 275.382812 88.03125 C 275.265625 87.683594 275.324219 87.160156 275.496094 86.636719 L 291.664062 46.386719 C 292.476562 44.292969 293.34375 42.902344 294.214844 42.144531 C 294.445312 41.972656 294.734375 41.738281 295.082031 41.566406 C 296.242188 40.75 297.632812 40.34375 299.082031 40.34375 C 302.269531 40.34375 305.050781 42.492188 305.976562 45.515625 Z M 377.328125 86.347656 C 377.558594 86.695312 377.617188 87.160156 377.558594 87.742188 C 377.445312 88.4375 376.921875 88.902344 376.226562 88.902344 L 369.851562 88.902344 C 369.332031 88.902344 368.925781 88.789062 368.636719 88.554688 C 368.402344 88.378906 368.230469 88.089844 367.996094 87.742188 L 357.507812 69.097656 L 345.28125 69.097656 L 345.28125 86.871094 C 345.28125 88.671875 344.179688 88.902344 343.660156 88.902344 L 338.386719 88.902344 C 337.863281 88.902344 336.703125 88.671875 336.703125 86.871094 L 336.703125 62.476562 C 336.703125 60.675781 337.863281 60.5 338.386719 60.5 L 363.59375 60.5 C 365.101562 60.5 366.085938 60.09375 366.664062 59.222656 C 367.300781 58.351562 367.59375 56.957031 367.59375 55.039062 C 367.59375 53.125 367.300781 51.730469 366.664062 50.859375 C 366.085938 49.988281 365.101562 49.582031 363.59375 49.582031 L 338.386719 49.582031 C 337.863281 49.582031 336.703125 49.40625 336.703125 47.605469 L 336.703125 43.015625 C 336.703125 41.15625 337.863281 40.984375 338.386719 40.984375 L 365.101562 40.984375 C 369.042969 40.984375 371.9375 42.203125 373.675781 44.699219 C 375.242188 47.082031 376.109375 50.453125 376.226562 54.867188 L 376.226562 55.214844 C 376.109375 59.6875 375.242188 63.054688 373.675781 65.378906 C 372.226562 67.355469 370.027344 68.574219 367.1875 68.921875 Z M 377.328125 86.347656 "/>
<path style=" stroke:none;fill-rule:nonzero;fill:url(#linear0);" d="M 46.730469 106.773438 C 47.359375 107.070312 48.003906 107.328125 48.664062 107.542969 L 48.945312 107.636719 C 49.574219 107.828125 50.214844 107.980469 50.863281 108.089844 L 51.160156 108.089844 C 52.507812 108.296875 53.878906 108.296875 55.230469 108.089844 L 55.542969 108.089844 C 56.179688 107.984375 56.808594 107.835938 57.429688 107.652344 L 57.789062 107.542969 C 58.414062 107.339844 59.027344 107.097656 59.628906 106.820312 L 59.894531 106.695312 C 60.496094 106.402344 61.085938 106.074219 61.65625 105.710938 L 61.796875 105.632812 C 62.394531 105.246094 62.972656 104.828125 63.527344 104.382812 L 63.855469 104.117188 C 64.394531 103.667969 64.914062 103.183594 65.414062 102.664062 L 65.757812 102.320312 C 66.273438 101.789062 66.785156 101.226562 67.316406 100.632812 L 67.535156 100.351562 C 68.003906 99.777344 68.453125 99.179688 68.890625 98.550781 L 69.046875 98.332031 C 64.019531 98.046875 59.050781 97.109375 54.261719 95.550781 C 53.601562 95.339844 52.894531 95.339844 52.234375 95.550781 C 47.441406 97.121094 42.46875 98.066406 37.433594 98.363281 C 39.753906 101.925781 42.957031 104.824219 46.730469 106.773438 Z M 46.730469 106.773438 "/>
<path style=" stroke:none;fill-rule:nonzero;fill:url(#linear1);" d="M 13.511719 80.199219 C 13.570312 80.863281 13.667969 81.519531 13.808594 82.171875 L 13.886719 82.53125 C 14.03125 83.160156 14.21875 83.78125 14.445312 84.390625 L 14.570312 84.6875 C 15.0625 85.957031 15.746094 87.144531 16.597656 88.203125 L 16.800781 88.453125 C 17.207031 88.949219 17.644531 89.421875 18.109375 89.859375 L 18.390625 90.125 C 18.886719 90.566406 19.40625 90.972656 19.953125 91.347656 L 20.199219 91.519531 C 20.734375 91.878906 21.285156 92.214844 21.855469 92.519531 L 22.058594 92.628906 C 22.664062 92.941406 23.304688 93.222656 23.945312 93.488281 L 24.382812 93.660156 C 25.027344 93.898438 25.691406 94.113281 26.378906 94.300781 L 26.890625 94.425781 C 27.59375 94.613281 28.3125 94.769531 29.058594 94.894531 L 29.433594 94.894531 C 30.121094 95.007812 30.820312 95.097656 31.539062 95.160156 L 31.882812 95.160156 C 31.320312 94.066406 30.800781 92.925781 30.324219 91.738281 C 30.035156 91.125 30.175781 90.394531 30.667969 89.929688 C 31.164062 89.46875 31.898438 89.375 32.492188 89.703125 C 32.8125 89.871094 33.0625 90.140625 33.207031 90.472656 C 33.625 91.460938 34.066406 92.414062 34.535156 93.332031 C 35.152344 94.546875 36.4375 95.273438 37.792969 95.175781 C 40.535156 94.988281 43.257812 94.585938 45.933594 93.972656 C 46.269531 93.882812 46.515625 93.59375 46.554688 93.25 C 46.589844 92.902344 46.414062 92.570312 46.105469 92.410156 C 43.796875 91.363281 41.503906 90.203125 39.257812 88.890625 C 30.003906 83.773438 22.066406 76.558594 16.082031 67.820312 L 15.992188 68.023438 C 15.648438 68.773438 15.335938 69.507812 15.070312 70.242188 L 15.070312 70.398438 C 14.789062 71.148438 14.554688 71.960938 14.351562 72.648438 L 14.242188 73.023438 C 14.054688 73.746094 13.90625 74.457031 13.792969 75.167969 L 13.792969 75.542969 C 13.683594 76.25 13.609375 76.964844 13.574219 77.683594 C 13.574219 77.683594 13.574219 77.792969 13.574219 77.839844 C 13.535156 78.515625 13.535156 79.195312 13.574219 79.871094 C 13.496094 79.980469 13.496094 80.058594 13.511719 80.199219 Z M 13.511719 80.199219 "/>
<path style=" stroke:none;fill-rule:nonzero;fill:url(#linear2);" d="M 53.453125 37.226562 L 53.234375 37.226562 C 48.90625 38.753906 44.730469 40.679688 40.757812 42.980469 C 31.761719 47.96875 24.085938 55.042969 18.375 63.613281 C 18.011719 64.199219 18.011719 64.9375 18.375 65.523438 C 20.507812 68.917969 23.011719 72.066406 25.847656 74.902344 C 25.40625 71.476562 25.1875 68.023438 25.191406 64.566406 C 25.191406 63.597656 25.191406 62.628906 25.191406 61.675781 C 25.207031 61.308594 25.351562 60.960938 25.597656 60.691406 C 26.042969 60.230469 26.722656 60.085938 27.316406 60.332031 C 27.90625 60.574219 28.289062 61.160156 28.28125 61.800781 C 28.28125 62.730469 28.28125 63.660156 28.28125 64.597656 C 28.277344 68.832031 28.636719 73.058594 29.355469 77.230469 C 29.480469 77.933594 29.851562 78.570312 30.402344 79.027344 C 33.652344 81.722656 37.128906 84.132812 40.789062 86.234375 C 49.3125 91.34375 58.886719 94.433594 68.78125 95.269531 C 70.128906 95.320312 71.378906 94.574219 71.980469 93.363281 C 73.230469 90.804688 74.273438 88.148438 75.097656 85.421875 C 75.195312 85.101562 75.078125 84.753906 74.800781 84.566406 C 74.527344 84.375 74.160156 84.386719 73.898438 84.59375 C 71.773438 86.148438 69.570312 87.601562 67.300781 88.9375 C 66.597656 89.34375 65.882812 89.71875 65.164062 90.09375 C 64.808594 90.285156 64.398438 90.328125 64.011719 90.21875 C 63.425781 90.023438 63.011719 89.5 62.953125 88.882812 C 62.898438 88.269531 63.207031 87.679688 63.746094 87.375 C 64.429688 87.011719 65.113281 86.628906 65.789062 86.234375 C 69.480469 84.097656 72.984375 81.644531 76.253906 78.902344 C 76.734375 78.503906 77.0625 77.953125 77.1875 77.339844 C 77.898438 73.121094 78.242188 68.847656 78.21875 64.566406 C 78.21875 63.433594 78.21875 62.300781 78.21875 61.175781 C 78.214844 60.59375 78.535156 60.054688 79.046875 59.78125 C 79.5625 59.507812 80.1875 59.546875 80.667969 59.878906 C 81.003906 60.160156 81.207031 60.566406 81.226562 61.003906 C 81.226562 62.160156 81.304688 63.316406 81.304688 64.488281 C 81.492188 75.085938 79.207031 85.578125 74.632812 95.128906 L 74.972656 95.128906 C 75.691406 95.054688 76.394531 94.96875 77.078125 94.863281 L 77.4375 94.863281 C 78.1875 94.738281 78.902344 94.566406 79.621094 94.378906 L 80.121094 94.253906 C 80.808594 94.066406 81.472656 93.847656 82.117188 93.597656 L 82.554688 93.425781 C 83.207031 93.160156 83.847656 92.878906 84.457031 92.566406 L 84.660156 92.457031 C 85.234375 92.148438 85.789062 91.808594 86.328125 91.441406 L 86.578125 91.285156 C 87.121094 90.902344 87.644531 90.492188 88.136719 90.046875 L 88.417969 89.78125 C 88.882812 89.34375 89.320312 88.871094 89.726562 88.375 L 89.929688 88.125 C 90.78125 87.066406 91.464844 85.878906 91.957031 84.609375 L 92.082031 84.3125 C 92.308594 83.703125 92.496094 83.082031 92.644531 82.453125 L 92.722656 82.09375 C 92.859375 81.46875 92.957031 80.835938 93.019531 80.199219 C 93.019531 80.105469 93.019531 80.027344 93.019531 79.933594 C 93.054688 79.257812 93.054688 78.578125 93.019531 77.902344 C 93.019531 77.902344 93.019531 77.792969 93.019531 77.746094 C 93 77 92.945312 76.253906 92.847656 75.511719 L 92.847656 75.136719 C 92.734375 74.425781 92.582031 73.714844 92.394531 72.992188 L 92.253906 72.632812 C 92.050781 71.898438 91.816406 71.148438 91.535156 70.398438 L 91.535156 70.210938 C 91.273438 69.476562 90.960938 68.742188 90.617188 68.007812 L 90.523438 67.804688 C 89.480469 69.429688 88.351562 70.992188 87.140625 72.492188 C 86.8125 72.875 86.289062 73.023438 85.8125 72.867188 C 85.335938 72.707031 85.003906 72.277344 84.972656 71.773438 C 84.972656 71.398438 84.972656 71.054688 84.972656 70.726562 C 84.953125 70.425781 85.046875 70.132812 85.234375 69.898438 C 87.671875 66.707031 87.597656 62.257812 85.066406 59.144531 C 79.683594 52.574219 73.132812 47.066406 65.742188 42.902344 C 63.777344 41.777344 61.8125 40.761719 59.847656 39.777344 C 61.15625 39.304688 62.605469 38.835938 64.195312 38.414062 C 65.238281 38.957031 66.277344 39.527344 67.316406 40.121094 C 70.277344 41.832031 73.128906 43.730469 75.847656 45.808594 C 74.886719 42.175781 73.546875 38.65625 71.855469 35.304688 C 71.355469 34.304688 70.316406 33.691406 69.203125 33.742188 C 63.847656 34.078125 58.566406 35.167969 53.515625 36.976562 Z M 40.789062 51.203125 L 45.917969 52.96875 C 46.136719 53.046875 46.296875 53.230469 46.347656 53.453125 C 46.398438 53.679688 46.332031 53.917969 46.167969 54.078125 L 42.800781 57.457031 C 42.636719 57.621094 42.402344 57.6875 42.175781 57.636719 C 41.953125 57.585938 41.769531 57.421875 41.691406 57.207031 L 39.898438 52.0625 C 39.800781 51.808594 39.863281 51.523438 40.058594 51.335938 C 40.253906 51.148438 40.539062 51.097656 40.789062 51.203125 Z M 34.96875 65.195312 C 34.742188 65.078125 34.597656 64.847656 34.597656 64.589844 C 34.597656 64.335938 34.742188 64.101562 34.96875 63.988281 L 39.835938 61.597656 C 40.042969 61.496094 40.285156 61.507812 40.484375 61.628906 C 40.679688 61.75 40.800781 61.960938 40.804688 62.191406 L 40.804688 66.976562 C 40.800781 67.207031 40.679688 67.417969 40.484375 67.539062 C 40.285156 67.660156 40.042969 67.671875 39.835938 67.570312 Z M 45.886719 76.230469 L 40.789062 77.980469 C 40.550781 78.058594 40.289062 77.992188 40.109375 77.816406 C 39.933594 77.636719 39.871094 77.375 39.945312 77.136719 L 41.707031 71.992188 C 41.785156 71.777344 41.96875 71.613281 42.191406 71.5625 C 42.417969 71.511719 42.652344 71.578125 42.816406 71.742188 L 46.183594 75.121094 C 46.347656 75.289062 46.40625 75.53125 46.347656 75.757812 C 46.285156 75.984375 46.113281 76.164062 45.886719 76.230469 Z M 56.257812 78.058594 L 53.871094 82.9375 C 53.757812 83.164062 53.527344 83.308594 53.273438 83.308594 C 53.019531 83.308594 52.785156 83.164062 52.671875 82.9375 L 50.285156 78.058594 C 50.183594 77.851562 50.195312 77.605469 50.316406 77.410156 C 50.4375 77.214844 50.648438 77.09375 50.878906 77.089844 L 55.652344 77.089844 C 55.878906 77.09375 56.09375 77.214844 56.214844 77.410156 C 56.332031 77.605469 56.34375 77.851562 56.242188 78.058594 Z M 65.789062 78.058594 L 60.65625 76.292969 C 60.441406 76.214844 60.277344 76.03125 60.226562 75.804688 C 60.175781 75.582031 60.246094 75.34375 60.40625 75.183594 L 63.777344 71.804688 C 63.9375 71.640625 64.175781 71.574219 64.398438 71.625 C 64.625 71.675781 64.804688 71.839844 64.882812 72.054688 L 66.628906 77.074219 C 66.757812 77.332031 66.710938 77.640625 66.507812 77.84375 C 66.308594 78.050781 66 78.105469 65.742188 77.980469 Z M 71.574219 64.066406 C 71.800781 64.179688 71.945312 64.414062 71.945312 64.667969 C 71.945312 64.925781 71.800781 65.15625 71.574219 65.273438 L 66.707031 67.664062 C 66.5 67.765625 66.257812 67.753906 66.0625 67.632812 C 65.863281 67.511719 65.746094 67.300781 65.742188 67.070312 L 65.742188 62.207031 C 65.746094 61.976562 65.863281 61.765625 66.0625 61.644531 C 66.257812 61.523438 66.5 61.511719 66.707031 61.613281 Z M 60.65625 53.03125 L 65.742188 51.203125 C 65.980469 51.125 66.242188 51.191406 66.417969 51.367188 C 66.59375 51.546875 66.660156 51.808594 66.582031 52.046875 L 64.820312 57.191406 C 64.746094 57.40625 64.5625 57.570312 64.335938 57.621094 C 64.113281 57.671875 63.875 57.605469 63.714844 57.441406 L 60.34375 54.0625 C 60.191406 53.894531 60.132812 53.65625 60.195312 53.433594 C 60.253906 53.214844 60.421875 53.039062 60.640625 52.96875 Z M 62.621094 64.566406 C 62.621094 69.75 58.433594 73.949219 53.265625 73.949219 C 48.097656 73.949219 43.90625 69.75 43.90625 64.566406 C 43.90625 59.386719 48.097656 55.1875 53.265625 55.1875 C 58.433594 55.1875 62.621094 59.386719 62.621094 64.566406 Z M 53.855469 46.261719 L 56.242188 51.140625 C 56.34375 51.347656 56.332031 51.59375 56.214844 51.789062 C 56.09375 51.984375 55.878906 52.105469 55.652344 52.109375 L 50.878906 52.109375 C 50.648438 52.105469 50.4375 51.984375 50.316406 51.789062 C 50.195312 51.59375 50.183594 51.347656 50.285156 51.140625 L 52.671875 46.261719 C 52.789062 46.042969 53.015625 45.90625 53.265625 45.90625 C 53.511719 45.90625 53.742188 46.042969 53.855469 46.261719 Z M 53.855469 46.261719 "/>
<path style=" stroke:none;fill-rule:nonzero;fill:url(#linear3);" d="M 13.667969 53.625 L 13.667969 54 C 13.78125 54.710938 13.929688 55.421875 14.117188 56.140625 L 14.226562 56.519531 C 14.429688 57.269531 14.664062 58.082031 14.945312 58.769531 L 14.945312 58.925781 C 15.226562 59.660156 15.539062 60.394531 15.867188 61.144531 L 15.960938 61.347656 C 18.980469 56.8125 22.613281 52.714844 26.75 49.171875 C 27.777344 43.882812 29.511719 38.761719 31.914062 33.945312 C 26.941406 34.144531 22.171875 35.96875 18.328125 39.132812 L 18.140625 39.304688 C 17.652344 39.765625 17.195312 40.257812 16.769531 40.777344 L 16.597656 40.996094 C 15.746094 42.0625 15.0625 43.253906 14.570312 44.527344 L 14.445312 44.824219 C 14.21875 45.433594 14.03125 46.054688 13.886719 46.683594 L 13.808594 47.042969 C 13.671875 47.667969 13.574219 48.300781 13.511719 48.9375 C 13.511719 49.015625 13.511719 49.109375 13.511719 49.1875 C 13.472656 49.863281 13.472656 50.542969 13.511719 51.21875 C 13.511719 51.21875 13.511719 51.328125 13.511719 51.375 C 13.523438 52.128906 13.574219 52.878906 13.667969 53.625 Z M 13.667969 53.625 "/>
<path style=" stroke:none;fill-rule:nonzero;fill:url(#linear4);" d="M 39.226562 40.199219 C 41.472656 38.898438 43.75 37.726562 46.058594 36.695312 C 46.339844 36.515625 46.492188 36.1875 46.453125 35.855469 C 46.414062 35.523438 46.1875 35.242188 45.871094 35.132812 C 44.574219 34.839844 43.289062 34.597656 42.019531 34.398438 C 41.5 34.300781 41.0625 33.941406 40.863281 33.449219 C 40.664062 32.953125 40.730469 32.394531 41.039062 31.960938 C 41.378906 31.492188 41.949219 31.25 42.519531 31.335938 C 45.859375 31.84375 49.15625 32.625 52.375 33.664062 C 52.945312 33.84375 53.554688 33.84375 54.121094 33.664062 C 58.964844 32.074219 63.992188 31.125 69.078125 30.832031 L 68.984375 30.707031 C 68.507812 30.019531 68.011719 29.371094 67.503906 28.753906 L 67.363281 28.566406 C 66.847656 27.957031 66.332031 27.378906 65.804688 26.832031 L 65.507812 26.535156 C 64.976562 26.015625 64.457031 25.523438 63.949219 25.066406 L 63.652344 24.832031 C 63.074219 24.339844 62.46875 23.882812 61.84375 23.457031 L 61.734375 23.457031 C 61.160156 23.058594 60.566406 22.691406 59.957031 22.363281 L 59.707031 22.234375 C 59.105469 21.960938 58.492188 21.71875 57.867188 21.515625 L 57.507812 21.40625 C 56.886719 21.222656 56.257812 21.074219 55.621094 20.96875 L 55.308594 20.96875 C 54.085938 20.796875 52.847656 20.796875 51.625 20.96875 L 51.191406 20.96875 C 50.722656 20.96875 50.269531 21.125 49.800781 21.234375 L 49.550781 21.234375 C 49.023438 21.378906 48.503906 21.550781 47.992188 21.75 L 47.617188 21.90625 C 47.191406 22.085938 46.765625 22.277344 46.339844 22.488281 L 46.011719 22.644531 C 45.503906 22.914062 44.984375 23.210938 44.453125 23.535156 L 44.21875 23.691406 C 43.792969 23.980469 43.367188 24.292969 42.941406 24.628906 L 42.644531 24.863281 C 41.644531 25.722656 40.710938 26.65625 39.851562 27.660156 L 39.632812 27.910156 C 38.6875 29.003906 37.808594 30.15625 37.011719 31.367188 L 36.90625 31.523438 C 34.085938 35.949219 31.980469 40.789062 30.667969 45.871094 C 33.394531 43.800781 36.253906 41.902344 39.226562 40.199219 Z M 39.226562 40.199219 "/>
<path style=" stroke:none;fill-rule:nonzero;fill:url(#linear5);" d="M 80.261719 49.5625 C 84.160156 53.011719 87.582031 56.964844 90.445312 61.316406 C 91.1875 59.730469 91.792969 58.082031 92.253906 56.394531 L 92.253906 56.15625 C 92.453125 55.398438 92.613281 54.648438 92.738281 53.90625 L 92.738281 53.640625 C 92.855469 52.902344 92.933594 52.15625 92.972656 51.40625 C 93.011719 50.699219 93.011719 49.988281 92.972656 49.28125 C 92.972656 49.28125 92.972656 49.140625 92.972656 49.078125 C 92.914062 48.410156 92.816406 47.746094 92.675781 47.089844 L 92.675781 46.746094 C 92.527344 46.117188 92.339844 45.496094 92.113281 44.886719 L 91.988281 44.605469 C 91.496094 43.335938 90.8125 42.148438 89.960938 41.089844 L 89.773438 40.839844 C 89.363281 40.339844 88.921875 39.871094 88.449219 39.433594 L 88.167969 39.164062 C 87.671875 38.722656 87.152344 38.308594 86.609375 37.929688 L 86.359375 37.757812 C 85.816406 37.390625 85.253906 37.050781 84.675781 36.742188 L 84.457031 36.570312 C 83.847656 36.257812 83.207031 35.976562 82.539062 35.710938 L 82.117188 35.539062 C 81.472656 35.300781 80.800781 35.082031 80.105469 34.882812 L 79.605469 34.757812 C 78.886719 34.570312 78.171875 34.414062 77.421875 34.273438 L 77.0625 34.273438 C 76.367188 34.160156 75.648438 34.066406 74.910156 33.992188 L 74.601562 33.992188 C 76.921875 38.636719 78.621094 43.566406 79.652344 48.65625 C 79.757812 49.011719 79.96875 49.328125 80.261719 49.5625 Z M 80.261719 49.5625 "/>
</g>
</svg>
