<svg version="1.1" id="exchange-logo-placeholder" xmlns="http://www.w3.org/2000/svg" x="0" y="0" viewBox="0 0 200 200" xml:space="preserve"><g transform="translate(-28.99 -39.17)"><circle fill="currentColor" cx="149.717" cy="139.082" r="30"/><circle fill="none" stroke="currentColor" stroke-width="2" cx="110.296" cy="139.082" r="29"/><path fill="none" stroke="currentColor" stroke-width="2" stroke-linecap="round" d="M115.915 110.305c15.851-18.654 43.824-20.926 62.477-5.074s20.926 43.824 5.074 62.478a44.324 44.324 0 01-33.746 15.622"/><path fill="none" stroke="currentColor" stroke-width="2" stroke-linecap="round" d="M143.016 166.675c-15.251 19.15-43.139 22.31-62.288 7.058-19.15-15.251-22.31-43.139-7.058-62.288a44.326 44.326 0 0134.657-16.711"/><path fill="none" stroke="currentColor" stroke-width="2" stroke-linecap="round" stroke-linejoin="round" d="M150 188.95h-1.675v4.927c0 .394-.296.493-.59.296l-9.66-6.998a1.134 1.134 0 01-.098-1.674.097.097 0 01.1-.099l9.656-6.51c.296-.393.59-.295.59.1v4.34H150m-41.884-88.644h1.675v5.026c0 .493.296.591.591.296l9.955-7.293a1.248 1.248 0 00.1-1.78l-.1-.099-9.953-6.597c-.297-.296-.591-.197-.591.197v4.533h-1.677"/></g></svg>