<svg version="1.1" xmlns="http://www.w3.org/2000/svg" x="0" y="0" viewBox="0 0 20 20" xml:space="preserve"><path d="M4.6 19h0c-1.3 0-2.4-1.1-2.4-2.4 0 0 0 0 0 0V6.4c0-.4.1-.7.3-1.1l1.6-3.2c.1-.3.5-.4.8-.3.1.1.2.2.2.3l1.6 3.2c.2.3.3.7.3 1.1v10.2C7 17.9 5.9 19 4.6 19zM2.3 5.8H7M2.2 16H7m3.6-13.8c0-.7.5-1.2 1.2-1.2h4.8c.7 0 1.2.5 1.2 1.2 0 0 0 0 0 0v15.6c0 .7-.5 1.2-1.2 1.2h0-4.8c-.7 0-1.2-.5-1.2-1.2h0V2.2zm0 2.4H13m-2.4 3.6H13m-2.4 3.6H13m-2.4 3.6H13" fill="none" stroke="currentColor" stroke-width="2" stroke-linecap="round" stroke-linejoin="round"/></svg>